<mxfile host="app.diagrams.net" modified="2023-12-21T13:39:56.198Z" agent="Mozilla/5.0 (Windows NT 10.0; Win64; x64; rv:120.0) Gecko/20100101 Firefox/120.0" etag="6r_PG3hAa9BEHOE7mCh9" version="22.1.11" type="github">
  <diagram name="Page-1" id="k6AbBMjMgviuOL3WaYyk">
    <mxGraphModel dx="1050" dy="558" grid="1" gridSize="10" guides="1" tooltips="1" connect="1" arrows="1" fold="1" page="1" pageScale="1" pageWidth="827" pageHeight="1169" math="0" shadow="0">
      <root>
        <mxCell id="0" />
        <mxCell id="1" parent="0" />
        <mxCell id="xO6iZMLjkFuNqqjO-0H2-1" value="" style="verticalLabelPosition=bottom;aspect=fixed;html=1;shape=mxgraph.salesforce.data2;" vertex="1" parent="1">
          <mxGeometry x="30" y="200" width="100" height="100" as="geometry" />
        </mxCell>
        <mxCell id="xO6iZMLjkFuNqqjO-0H2-10" value="" style="curved=1;endArrow=classic;html=1;rounded=0;strokeWidth=4;fillColor=#0050ef;strokeColor=#001DBC;" edge="1" parent="1">
          <mxGeometry width="50" height="50" relative="1" as="geometry">
            <mxPoint x="414" y="311.5" as="sourcePoint" />
            <mxPoint x="384" y="311.5" as="targetPoint" />
            <Array as="points">
              <mxPoint x="404" y="361.5" />
              <mxPoint x="364" y="331.5" />
            </Array>
          </mxGeometry>
        </mxCell>
        <mxCell id="xO6iZMLjkFuNqqjO-0H2-2" value="External Data" style="text;html=1;strokeColor=none;fillColor=none;align=center;verticalAlign=middle;whiteSpace=wrap;rounded=0;fontFamily=Comic Sans MS;fontStyle=1;fontSize=15;" vertex="1" parent="1">
          <mxGeometry x="20" y="160" width="120" height="30" as="geometry" />
        </mxCell>
        <mxCell id="xO6iZMLjkFuNqqjO-0H2-3" value="" style="outlineConnect=0;dashed=0;verticalLabelPosition=bottom;verticalAlign=top;align=center;html=1;shape=mxgraph.aws3.s3;fillColor=#E05243;gradientColor=none;" vertex="1" parent="1">
          <mxGeometry x="340" y="188.5" width="110" height="123" as="geometry" />
        </mxCell>
        <mxCell id="xO6iZMLjkFuNqqjO-0H2-4" value="&lt;h3&gt;&lt;b&gt;&lt;font face=&quot;Comic Sans MS&quot;&gt;AWS &lt;/font&gt;&lt;font face=&quot;Comic Sans MS&quot;&gt;S3&lt;/font&gt;&lt;/b&gt;&lt;/h3&gt;" style="text;html=1;strokeColor=none;fillColor=none;align=center;verticalAlign=middle;whiteSpace=wrap;rounded=0;" vertex="1" parent="1">
          <mxGeometry x="330" y="158.5" width="140" height="30" as="geometry" />
        </mxCell>
        <mxCell id="xO6iZMLjkFuNqqjO-0H2-5" value="" style="endArrow=classic;html=1;rounded=0;jumpSize=2;strokeWidth=4;fillColor=#60a917;strokeColor=#2D7600;" edge="1" parent="1">
          <mxGeometry width="50" height="50" relative="1" as="geometry">
            <mxPoint x="160" y="240" as="sourcePoint" />
            <mxPoint x="310" y="240" as="targetPoint" />
            <Array as="points">
              <mxPoint x="160" y="240" />
            </Array>
          </mxGeometry>
        </mxCell>
        <mxCell id="xO6iZMLjkFuNqqjO-0H2-6" value="" style="endArrow=classic;html=1;rounded=0;jumpSize=2;strokeWidth=4;fillColor=#60a917;strokeColor=#2D7600;" edge="1" parent="1" target="xO6iZMLjkFuNqqjO-0H2-7">
          <mxGeometry width="50" height="50" relative="1" as="geometry">
            <mxPoint x="30" y="530" as="sourcePoint" />
            <mxPoint x="180" y="530" as="targetPoint" />
            <Array as="points">
              <mxPoint x="30" y="530" />
            </Array>
          </mxGeometry>
        </mxCell>
        <mxCell id="xO6iZMLjkFuNqqjO-0H2-7" value="Data Flow Kafka + Nifi" style="text;html=1;strokeColor=none;fillColor=none;align=center;verticalAlign=middle;whiteSpace=wrap;rounded=0;fontSize=14;" vertex="1" parent="1">
          <mxGeometry x="150" y="515" width="180" height="30" as="geometry" />
        </mxCell>
        <mxCell id="xO6iZMLjkFuNqqjO-0H2-8" value="&lt;font style=&quot;font-size: 14px;&quot; face=&quot;Comic Sans MS&quot;&gt;Amazon DynamoDB&lt;/font&gt;" style="sketch=0;outlineConnect=0;fontColor=#232F3E;gradientColor=none;strokeColor=#ffffff;fillColor=#232F3E;dashed=0;verticalLabelPosition=middle;verticalAlign=bottom;align=center;html=1;whiteSpace=wrap;fontSize=10;fontStyle=1;spacing=3;shape=mxgraph.aws4.productIcon;prIcon=mxgraph.aws4.dynamodb;" vertex="1" parent="1">
          <mxGeometry x="540" y="176.5" width="130" height="173.5" as="geometry" />
        </mxCell>
        <mxCell id="xO6iZMLjkFuNqqjO-0H2-12" value="" style="endArrow=classic;html=1;rounded=0;strokeWidth=4;fillColor=#0050ef;strokeColor=#001DBC;" edge="1" parent="1">
          <mxGeometry width="50" height="50" relative="1" as="geometry">
            <mxPoint x="30" y="570" as="sourcePoint" />
            <mxPoint x="150" y="570" as="targetPoint" />
          </mxGeometry>
        </mxCell>
        <mxCell id="xO6iZMLjkFuNqqjO-0H2-13" value="" style="endArrow=classic;html=1;rounded=0;strokeWidth=4;fillColor=#0050ef;strokeColor=#001DBC;" edge="1" parent="1">
          <mxGeometry width="50" height="50" relative="1" as="geometry">
            <mxPoint x="470" y="250" as="sourcePoint" />
            <mxPoint x="530" y="250" as="targetPoint" />
          </mxGeometry>
        </mxCell>
        <mxCell id="xO6iZMLjkFuNqqjO-0H2-14" value="Traitement des donnÃ©es Spark" style="text;html=1;strokeColor=none;fillColor=none;align=center;verticalAlign=middle;whiteSpace=wrap;rounded=0;fontSize=14;" vertex="1" parent="1">
          <mxGeometry x="160" y="555" width="180" height="30" as="geometry" />
        </mxCell>
      </root>
    </mxGraphModel>
  </diagram>
</mxfile>
